<svg xmlns="http://www.w3.org/2000/svg" version="1.1" xmlns:xlink="http://www.w3.org/1999/xlink" xmlns:svgjs="http://svgjs.dev/svgjs" width="1000" height="1000" viewBox="0 0 1000 1000"><rect width="1000" height="1000" fill="#000000"></rect><g transform="matrix(0.7,0,0,0.7,149.57575757575756,282.1265587044535)"><svg viewBox="0 0 396 247" data-background-color="#282634" preserveAspectRatio="xMidYMid meet" height="623" width="1000" xmlns="http://www.w3.org/2000/svg" xmlns:xlink="http://www.w3.org/1999/xlink"><g id="tight-bounds" transform="matrix(1,0,0,1,0.2400000000000091,-0.09999999999999432)"><svg viewBox="0 0 395.52 247.2" height="247.2" width="395.52"><g><svg></svg></g><g><svg viewBox="0 0 395.52 247.2" height="247.2" width="395.52"><g transform="matrix(1,0,0,1,39.55199999999999,92.70014408790976)"><svg viewBox="0 0 316.416 61.79971182418048" height="61.79971182418048" width="316.416"><g><svg viewBox="0 0 316.416 61.79971182418048" height="61.79971182418048" width="316.416"><g><svg viewBox="0 0 316.416 61.79971182418048" height="61.79971182418048" width="316.416"><g><svg viewBox="0 0 316.416 61.79971182418048" height="61.79971182418048" width="316.416"><g><svg viewBox="0 0 316.416 61.79971182418048" height="61.79971182418048" width="316.416"><g><svg viewBox="0 0 316.416 33.33181154611811" height="33.33181154611811" width="316.416"><g transform="matrix(1,0,0,1,0,0)"><svg width="316.416" viewBox="1.9 -26.15 301.38 31.75" height="33.33181154611811" data-palette-color="#ff4057"><path d="M22.45-21.95L22.45-21.95Q20.7-22.25 19.07-22.25 17.45-22.25 15.15-21.7L15.15-21.7Q14.4-18.55 14.4-15.55L14.4-15.55Q14.4-7.8 21.3-3.65L21.3-3.65Q25.9-6.7 29.6-11.25L29.6-11.25Q29.75-9.25 29.85-5.15L29.85-5.15Q26.15-2.25 22.3-0.6 18.45 1.05 12.7 1.05L12.7 1.05 11.55 1.05Q7.05-0.9 4.48-4.7 1.9-8.5 1.9-12.7L1.9-12.7Q1.9-18.3 6.5-22.23 11.1-26.15 19.85-26.15L19.85-26.15Q24.75-26.15 30.1-24.9L30.1-24.9Q29.3-21.75 28.1-18.95L28.1-18.95Q24.95-18.65 21.6-18.65L21.6-18.65Q22.1-20.05 22.45-21.95ZM52.75-22L52.75-22Q50.75-22.3 48.47-22.3 46.2-22.3 44.05-22L44.05-22Q45.4-19.7 47.25-18.25 49.1-16.8 51.92-15.38 54.75-13.95 56.52-12.75 58.3-11.55 60.45-8.8 62.6-6.05 63.15-3.05L63.15-3.05Q60.75 0.05 56.8 2.43 52.85 4.8 48.7 5.6L48.7 5.6Q45.9 5.35 41.62 4.03 37.35 2.7 35.2 2.7 33.05 2.7 30.9 4.05L30.9 4.05Q31.8 1.5 33.85-2.35L33.85-2.35 34.25-2.35Q37.45-2.35 40.27-1.35 43.1-0.35 45.42 0.65 47.75 1.65 49.17 1.65 50.6 1.65 51.25 1.45L51.25 1.45Q51.25-1.85 49.2-4L49.2-4Q48.1-5.15 47.32-5.78 46.55-6.4 44.95-7.5L44.95-7.5 44.1-8.1Q40.7-10.45 38.5-12.88 36.3-15.3 35.3-18.85L35.3-18.85Q36.9-22.4 38.45-25L38.45-25Q43.2-26.15 48.3-26.15L48.3-26.15 50.5-26.15Q54.8-26.15 60.35-24.95L60.35-24.95Q59.55-21.65 58.4-19L58.4-19Q54.2-18.7 51.9-18.7L51.9-18.7Q52.35-19.85 52.75-22ZM84.5-22L84.5-22Q82.5-22.3 80.22-22.3 77.94-22.3 75.8-22L75.8-22Q77.14-19.7 79-18.25 80.84-16.8 83.67-15.38 86.5-13.95 88.27-12.75 90.05-11.55 92.19-8.8 94.34-6.05 94.89-3.05L94.89-3.05Q92.5 0.05 88.55 2.43 84.59 4.8 80.44 5.6L80.44 5.6Q77.64 5.35 73.37 4.03 69.09 2.7 66.94 2.7 64.8 2.7 62.64 4.05L62.64 4.05Q63.55 1.5 65.59-2.35L65.59-2.35 66-2.35Q69.19-2.35 72.02-1.35 74.84-0.35 77.17 0.65 79.5 1.65 80.92 1.65 82.34 1.65 83 1.45L83 1.45Q83-1.85 80.94-4L80.94-4Q79.84-5.15 79.07-5.78 78.3-6.4 76.69-7.5L76.69-7.5 75.84-8.1Q72.44-10.45 70.25-12.88 68.05-15.3 67.05-18.85L67.05-18.85Q68.64-22.4 70.19-25L70.19-25Q74.94-26.15 80.05-26.15L80.05-26.15 82.25-26.15Q86.55-26.15 92.09-24.95L92.09-24.95Q91.3-21.65 90.14-19L90.14-19Q85.94-18.7 83.64-18.7L83.64-18.7Q84.09-19.85 84.5-22ZM135.04-21.95L135.04-21.95Q133.29-22.25 131.66-22.25 130.04-22.25 127.74-21.7L127.74-21.7Q126.99-18.55 126.99-15.55L126.99-15.55Q126.99-7.8 133.89-3.65L133.89-3.65Q138.49-6.7 142.19-11.25L142.19-11.25Q142.34-9.25 142.44-5.15L142.44-5.15Q138.74-2.25 134.89-0.6 131.04 1.05 125.29 1.05L125.29 1.05 124.14 1.05Q119.64-0.9 117.06-4.7 114.49-8.5 114.49-12.7L114.49-12.7Q114.49-18.3 119.09-22.23 123.69-26.15 132.44-26.15L132.44-26.15Q137.34-26.15 142.69-24.9L142.69-24.9Q141.89-21.75 140.69-18.95L140.69-18.95Q137.54-18.65 134.19-18.65L134.19-18.65Q134.69-20.05 135.04-21.95ZM150.34-0.15L150.34-0.15Q145.89-5.85 145.89-11.85 145.89-17.85 150.89-22 155.89-26.15 163.69-26.15L163.69-26.15Q167.84-26.15 171.94-24.9L171.94-24.9Q175.54-20.35 175.54-15.15L175.54-15.15Q175.54-8.6 170.19-3.75 164.84 1.1 157.24 1.1L157.24 1.1Q153.99 1.1 150.34-0.15ZM157.94-21.8L157.94-21.8Q156.19-18.8 156.19-14.75 156.19-10.7 157.96-7.28 159.74-3.85 162.84-2.35L162.84-2.35Q165.19-5.35 165.19-9.3 165.19-13.25 163.26-16.65 161.34-20.05 157.94-21.8ZM197.74-14.2L197.74-14.2 202.49-13.9Q203.14-13.9 203.49-13.95L203.49-13.95 201.14-9.55 200.69-9.55Q199.74-9.55 197.99-10.08 196.24-10.6 195.49-10.6L195.49-10.6Q193.53-10.6 192.34-8.05L192.34-8.05Q192.09-5.2 192.09-3.55 192.09-1.9 192.19 0L192.19 0 181.34 0Q180.39-6.4 180.39-13.23 180.39-20.05 181.09-24.95L181.09-24.95 207.79-24.95Q206.89-19.55 206.19-17.4L206.19-17.4 200.79-17.15Q201.24-18.4 201.24-19.3L201.24-19.3Q201.24-21.7 197.59-21.7L197.59-21.7Q195.99-21.7 194.64-21.45L194.64-21.45Q193.53-17 192.84-12.35L192.84-12.35Q194.84-14.2 197.74-14.2ZM228.68-14.2L228.68-14.2 233.43-13.9Q234.08-13.9 234.43-13.95L234.43-13.95 232.08-9.55 231.63-9.55Q230.68-9.55 228.93-10.08 227.18-10.6 226.43-10.6L226.43-10.6Q224.48-10.6 223.28-8.05L223.28-8.05Q223.03-5.2 223.03-3.55 223.03-1.9 223.13 0L223.13 0 212.28 0Q211.33-6.4 211.33-13.23 211.33-20.05 212.03-24.95L212.03-24.95 238.73-24.95Q237.83-19.55 237.13-17.4L237.13-17.4 231.73-17.15Q232.18-18.4 232.18-19.3L232.18-19.3Q232.18-21.7 228.53-21.7L228.53-21.7Q226.93-21.7 225.58-21.45L225.58-21.45Q224.48-17 223.78-12.35L223.78-12.35Q225.78-14.2 228.68-14.2ZM259.73-14.95L259.73-14.95 264.43-14.65Q265.13-14.65 265.48-14.7L265.48-14.7 263.13-10.3 262.68-10.3Q261.73-10.3 259.98-10.83 258.23-11.35 257.48-11.35L257.48-11.35Q255.43-11.35 254.23-8.7L254.23-8.7Q254.03-6.25 253.93-3.8L253.93-3.8Q256.53-3.3 258.03-3.3L258.03-3.3 258.48-3.3Q260.63-3.3 261.91-4.25 263.18-5.2 263.73-7.65L263.73-7.65 269.73-7.4Q268.98-3.1 267.73 0L267.73 0 243.18 0Q242.18-6.75 242.18-13.4 242.18-20.05 242.88-25L242.88-25 269.68-25Q268.78-19.6 268.08-17.4L268.08-17.4Q265.13-17.25 262.68-17.2L262.68-17.2Q263.08-18.35 263.08-19.35L263.08-19.35Q263.08-21.75 259.48-21.75L259.48-21.75Q258.13-21.75 256.48-21.45L256.48-21.45Q255.38-16.7 254.78-13.1L254.78-13.1Q256.78-14.95 259.73-14.95ZM293.28-14.95L293.28-14.95 297.98-14.65Q298.68-14.65 299.03-14.7L299.03-14.7 296.68-10.3 296.23-10.3Q295.28-10.3 293.53-10.83 291.78-11.35 291.03-11.35L291.03-11.35Q288.98-11.35 287.78-8.7L287.78-8.7Q287.58-6.25 287.48-3.8L287.48-3.8Q290.08-3.3 291.58-3.3L291.58-3.3 292.03-3.3Q294.18-3.3 295.45-4.25 296.73-5.2 297.28-7.65L297.28-7.65 303.28-7.4Q302.53-3.1 301.28 0L301.28 0 276.73 0Q275.73-6.75 275.73-13.4 275.73-20.05 276.43-25L276.43-25 303.23-25Q302.33-19.6 301.63-17.4L301.63-17.4Q298.68-17.25 296.23-17.2L296.23-17.2Q296.63-18.35 296.63-19.35L296.63-19.35Q296.63-21.75 293.03-21.75L293.03-21.75Q291.68-21.75 290.03-21.45L290.03-21.45Q288.93-16.7 288.33-13.1L288.33-13.1Q290.33-14.95 293.28-14.95Z" opacity="1" transform="matrix(1,0,0,1,0,0)" fill="#ffffff" class="undefined-text-0" data-fill-palette-color="primary" id="text-0"></path></svg></g></svg></g><g transform="matrix(1,0,0,1,0,41.20065228867949)"><svg viewBox="0 0 316.416 20.59905953550099" height="20.59905953550099" width="316.416"><g transform="matrix(1,0,0,1,0,0)"><svg width="316.416" viewBox="-0.15 -34.13 695.29 45.260000000000005" height="20.59905953550099" data-palette-color="#dcdcdc"><path d="M9.86 0L0 0-0.15-2.64 2.39-3.47 12.3-27.05 16.75-29.54 28.22-3.47 30.76-2.64 30.62 0 16.5 0 16.26-2.64 19.43-3.47 16.94-9.42 16.41-11.18 11.67-22.12 13.23-21.34 9.52-11.38 9.03-9.91 6.84-3.47 10.01-2.64 9.86 0ZM7.76-8.06L7.76-8.06 7.76-11.62Q8.74-11.57 9.89-11.47 11.04-11.38 12.94-11.38L12.94-11.38Q14.84-11.38 16.04-11.47 17.24-11.57 18.16-11.62L18.16-11.62 18.16-8.11Q17.58-8.11 16.33-8.15 15.09-8.2 12.94-8.2L12.94-8.2Q10.74-8.2 9.57-8.15 8.4-8.11 7.76-8.06ZM79.1-26.03L79.25-28.66 93.26-28.66Q101.22-28.66 105.67-24.98 110.11-21.29 110.11-14.75L110.11-14.75Q110.11-10.45 108.01-7.13 105.91-3.81 102.2-1.9 98.49 0 93.7 0L93.7 0 79.25 0 79.1-2.64 82.23-3.47Q82.38-3.76 82.47-5.91 82.57-8.06 82.57-11.13L82.57-11.13 82.57-17.58Q82.57-20.61 82.47-22.8 82.38-25 82.23-25.24L82.23-25.24 79.1-26.03ZM90.09-25.2L90.09-25.2Q90.09-24.9 90.07-23.88 90.04-22.85 90.02-21.26 89.99-19.68 89.99-17.58L89.99-17.58 89.99-11.13Q89.99-9.91 90.02-8.5 90.04-7.08 90.11-5.83 90.19-4.59 90.24-3.91L90.24-3.91Q91.16-3.71 92.24-3.59 93.31-3.47 94.24-3.47L94.24-3.47Q98.05-3.47 99.98-5.76 101.91-8.06 101.91-13.13L101.91-13.13Q101.91-16.7 101.13-19.04 100.34-21.39 99.03-22.78 97.71-24.17 96.12-24.8 94.53-25.44 92.87-25.44L92.87-25.44Q92.24-25.44 91.51-25.37 90.77-25.29 90.09-25.2ZM140.38 0.39L140.38 0.39Q138.04 0.39 136.38-0.61 134.72-1.61 133.84-3.05 132.96-4.49 132.96-5.71L132.96-5.71Q132.96-7.57 134.06-8.79 135.16-10.01 137.45-10.64L137.45-10.64 145.17-12.79 145.17-14.26Q145.17-15.28 144.56-16.16 143.95-17.04 142.92-17.63 141.9-18.21 140.77-18.21L140.77-18.21Q140.09-18.21 139.82-17.87 139.55-17.53 139.46-16.65L139.46-16.65 139.16-13.33Q136.53-12.84 134.87-13.53 133.21-14.21 133.21-15.82L133.21-15.82Q133.21-16.85 134.26-17.9 135.31-18.95 136.87-19.82 138.43-20.7 140.02-21.31 141.6-21.92 142.63-22.02L142.63-22.02Q147.22-22.02 149.88-20.02 152.54-18.02 152.54-14.55L152.54-14.55 152.4-8.25Q152.4-6.74 152.49-6.01 152.59-5.27 152.79-4.79L152.79-4.79 156.06-4.2 156.06-1.95 152.59-0.44Q151.66 0 150.86 0.2 150.05 0.39 149.27 0.39L149.27 0.39Q147.22 0.39 146.39-1.66L146.39-1.66 145.41-4 146.54-3.76Q145.07-1.86 143.46-0.73 141.85 0.39 140.38 0.39ZM143.26-4.49L143.26-4.49Q143.8-4.49 144.31-4.69 144.83-4.88 145.27-5.27L145.27-5.27 145.27-9.91 142.68-9.57Q141.46-9.47 140.92-8.89 140.38-8.3 140.38-7.37L140.38-7.37Q140.38-6.3 141.26-5.4 142.14-4.49 143.26-4.49ZM189.36 0L175.49 0 175.35-2.49 178.57-3.27Q178.62-3.47 178.67-4.25 178.72-5.03 178.76-6.05 178.81-7.08 178.81-8.06L178.81-8.06 178.86-11.72Q178.86-13.13 178.79-14.14 178.72-15.14 178.47-16.5L178.47-16.5 175.2-17.19 175.2-19.53 184.82-21.92 186.38-21.04Q186.23-19.43 186.16-17.82 186.09-16.21 186.09-14.21L186.09-14.21 186.09-7.96Q186.09-6.59 186.16-5.13 186.23-3.66 186.28-3.27L186.28-3.27 189.51-2.49 189.36 0ZM182.52-25.34L182.52-25.34Q180.28-25.34 179.06-26.66 177.84-27.98 177.84-29.69L177.84-29.69Q177.84-31.4 179.06-32.71 180.28-34.03 182.52-34.03L182.52-34.03Q184.77-34.03 185.94-32.71 187.11-31.4 187.11-29.69L187.11-29.69Q187.11-27.98 185.94-26.66 184.77-25.34 182.52-25.34ZM223.15 0L209.28 0 209.14-2.49 212.31-3.27Q212.36-3.91 212.43-5.35 212.51-6.79 212.55-8.47 212.6-10.16 212.6-11.38L212.6-11.38 212.6-17.63Q212.6-19.24 212.58-20.83 212.55-22.41 212.53-23.88 212.51-25.34 212.46-26.59 212.41-27.83 212.31-28.76L212.31-28.76 208.7-29.25 208.6-31.59 218.71-34.13 220.22-33.2Q220.12-31.2 220.05-29.27 219.98-27.34 219.98-24.95 219.98-22.56 219.93-18.99L219.93-18.99 219.88-12.11Q219.88-8.5 219.95-6.15 220.02-3.81 220.12-3.27L220.12-3.27 223.3-2.49 223.15 0ZM258.01-7.42L253.57 0.2 244.49-18.36 242.19-19.24 242.34-21.63 255.82-21.63 255.96-19.24 252.94-18.36 258.01-7.42ZM258.5-21.63L267.63-21.63 267.78-19.24 265.48-18.36 256.89-1.71 253.03 6.35Q251.67 9.18 250.23 10.16 248.79 11.13 247.22 11.13L247.22 11.13Q245.42 11.13 244.39 10.25 243.37 9.38 243.37 8.15L243.37 8.15Q243.37 6.88 244.34 5.91 245.32 4.93 247.22 4.44L247.22 4.44 253.38 2.78 249.76 4.93 255.87-6.2 256.55-7.47 261.38-18.36 258.36-19.24 258.5-21.63ZM326.13 0.44L326.13 0.44Q324.08 0.44 321.54-0.17 319-0.78 317.1-1.81L317.1-1.81 316.9-9.33 320.42-9.52 322.13-4.25Q323.01-3.71 324.3-3.34 325.59-2.98 326.77-2.98L326.77-2.98Q328.87-2.98 329.94-3.81 331.01-4.64 331.01-6.15L331.01-6.15Q331.01-7.76 329.99-8.76 328.96-9.77 327.38-10.45 325.79-11.13 323.98-11.79 322.18-12.45 320.59-13.45 319-14.45 317.98-16.04 316.95-17.63 316.95-20.17L316.95-20.17Q316.95-22.85 318.51-24.9 320.08-26.95 322.91-28.1 325.74-29.25 329.5-29.25L329.5-29.25Q330.57-29.25 331.92-29.05 333.26-28.86 334.53-28.56 335.8-28.27 336.73-27.83L336.73-27.83 337.36-20.36 333.94-20.17 332.33-25.2Q330.87-25.88 329.01-25.88L329.01-25.88Q327.25-25.88 325.99-24.95 324.72-24.02 324.72-22.22L324.72-22.22Q324.72-20.65 325.74-19.68 326.77-18.7 328.38-17.99 329.99-17.29 331.82-16.58 333.65-15.87 335.29-14.87 336.92-13.87 337.95-12.35 338.97-10.84 338.97-8.45L338.97-8.45Q338.97-5.91 337.36-3.88 335.75-1.86 332.87-0.71 329.99 0.44 326.13 0.44ZM373.35 0L359.48 0 359.34-2.49 362.56-3.27Q362.61-3.47 362.66-4.25 362.7-5.03 362.75-6.05 362.8-7.08 362.8-8.06L362.8-8.06 362.85-11.72Q362.85-13.13 362.78-14.14 362.7-15.14 362.46-16.5L362.46-16.5 359.19-17.19 359.19-19.53 368.81-21.92 370.37-21.04Q370.22-19.43 370.15-17.82 370.08-16.21 370.08-14.21L370.08-14.21 370.08-7.96Q370.08-6.59 370.15-5.13 370.22-3.66 370.27-3.27L370.27-3.27 373.5-2.49 373.35 0ZM366.51-25.34L366.51-25.34Q364.27-25.34 363.05-26.66 361.83-27.98 361.83-29.69L361.83-29.69Q361.83-31.4 363.05-32.71 364.27-34.03 366.51-34.03L366.51-34.03Q368.76-34.03 369.93-32.71 371.1-31.4 371.1-29.69L371.1-29.69Q371.1-27.98 369.93-26.66 368.76-25.34 366.51-25.34ZM407.73 10.74L393.27 10.74 393.13 8.35 396.15 7.47Q396.15 7.13 396.2 6.03 396.25 4.93 396.3 3.44 396.35 1.95 396.4 0.32 396.45-1.32 396.45-2.73L396.45-2.73 396.54-11.62Q396.54-13.09 396.47-14.11 396.4-15.14 396.15-16.5L396.15-16.5 393.03-17.19 393.03-19.53 402.26-21.92 403.77-21.04 403.38-17.92 403.53-17.82Q404.65-19.73 406.43-20.87 408.21-22.02 410.17-22.02L410.17-22.02Q412.41-22.02 414.44-20.85 416.47-19.68 417.76-17.41 419.05-15.14 419.05-11.82L419.05-11.82Q419.05-8.64 417.59-5.88 416.12-3.13 413.34-1.39 410.56 0.34 406.7 0.34L406.7 0.34Q406.02 0.34 405.24 0.22 404.45 0.1 403.62-0.15L403.62-0.15 403.62 2.73Q403.62 4.25 403.7 5.66 403.77 7.08 403.87 7.47L403.87 7.47 407.87 8.3 407.73 10.74ZM406.75-3.52L406.75-3.52Q408.07-3.52 409.12-4.13 410.17-4.74 410.8-6.2 411.44-7.67 411.39-10.11L411.39-10.11Q411.39-12.7 410.7-14.18 410.02-15.67 409-16.26 407.97-16.85 406.85-16.85L406.85-16.85Q405.97-16.85 405.11-16.41 404.26-15.97 403.62-15.23L403.62-15.23 403.62-4.35Q404.31-3.96 405.11-3.74 405.92-3.52 406.75-3.52ZM481.21 0.39L481.21 0.39Q477.75 0.39 475.09-1 472.42-2.39 470.91-4.88 469.4-7.37 469.4-10.55L469.4-10.55Q469.4-14.26 471.11-16.82 472.82-19.38 475.57-20.7 478.33-22.02 481.41-22.02L481.41-22.02Q484.73-22.02 487.27-20.63 489.81-19.24 491.25-16.77 492.69-14.31 492.69-11.08L492.69-11.08Q492.69-7.86 491.15-5.25 489.61-2.64 487-1.12 484.39 0.39 481.21 0.39ZM481.7-3.03L481.7-3.03Q482.83-3.03 483.53-3.74 484.24-4.44 484.61-5.88 484.97-7.32 484.97-9.33L484.97-9.33Q484.97-13.57 483.78-16.21 482.58-18.85 480.58-18.85L480.58-18.85Q478.97-18.85 478.06-17.07 477.16-15.28 477.16-12.16L477.16-12.16Q477.16-9.62 477.75-7.54 478.33-5.47 479.38-4.25 480.43-3.03 481.7-3.03ZM528.43-2.39L528.29 0 513.93 0 513.78-2.39 516.81-3.27Q516.86-4.35 516.88-5.18 516.91-6.01 516.91-6.96 516.91-7.91 516.91-9.35 516.91-10.79 516.91-13.13L516.91-13.13 516.86-18.21 516.86-22.61Q516.86-25.88 518.15-28.49 519.45-31.1 521.69-32.59 523.94-34.08 526.72-34.08L526.72-34.08Q529.36-34.08 531.02-33.03 532.68-31.98 532.68-30.27L532.68-30.27Q532.68-29.1 532.02-28.52 531.36-27.93 530.19-27.93L530.19-27.93Q528.72-27.93 527.16-29.2L527.16-29.2 524.18-31.98 526.63-31.64Q525.36-31.64 524.67-29.98 523.99-28.32 523.99-25.05L523.99-25.05 523.99-21.53 524.09-18.21 524.13-13.13Q524.13-10.6 524.21-7.91 524.28-5.22 524.43-3.27L524.43-3.27 528.43-2.39ZM529.12-18.21L513.34-18.21 513.34-20.7 516.86-21.73 519.5-21.53 529.12-21.53 529.12-18.21ZM594.99 0.44L594.99 0.44Q590.06 0.44 586.39-1.25 582.73-2.93 580.73-6.13 578.73-9.33 578.73-13.77L578.73-13.77Q578.73-17.48 580.07-20.34 581.41-23.19 583.81-25.15 586.2-27.1 589.35-28.1 592.5-29.1 596.21-29.1L596.21-29.1Q598.5-29.1 600.77-28.61 603.04-28.13 604.51-27.39L604.51-27.39 604.85-19.63 601.58-19.43 599.72-24.76Q598.8-25.2 597.82-25.42 596.84-25.63 595.77-25.63L595.77-25.63Q593.23-25.63 591.4-24.39 589.57-23.14 588.57-20.8 587.56-18.46 587.56-15.09L587.56-15.09Q587.56-11.43 588.76-8.76 589.96-6.1 591.93-4.66 593.91-3.22 596.35-3.22L596.35-3.22Q597.67-3.22 598.89-3.56 600.11-3.91 600.99-4.64L600.99-4.64 602.65-9.18 606.27-8.79 604.85-2.15Q603.34-1.07 600.63-0.32 597.92 0.44 594.99 0.44ZM637.81 0.44L637.81 0.44Q635.76 0.44 633.22-0.17 630.68-0.78 628.78-1.81L628.78-1.81 628.58-9.33 632.1-9.52 633.81-4.25Q634.68-3.71 635.98-3.34 637.27-2.98 638.44-2.98L638.44-2.98Q640.54-2.98 641.62-3.81 642.69-4.64 642.69-6.15L642.69-6.15Q642.69-7.76 641.67-8.76 640.64-9.77 639.06-10.45 637.47-11.13 635.66-11.79 633.85-12.45 632.27-13.45 630.68-14.45 629.66-16.04 628.63-17.63 628.63-20.17L628.63-20.17Q628.63-22.85 630.19-24.9 631.76-26.95 634.59-28.1 637.42-29.25 641.18-29.25L641.18-29.25Q642.25-29.25 643.6-29.05 644.94-28.86 646.21-28.56 647.48-28.27 648.41-27.83L648.41-27.83 649.04-20.36 645.62-20.17 644.01-25.2Q642.55-25.88 640.69-25.88L640.69-25.88Q638.93-25.88 637.66-24.95 636.39-24.02 636.39-22.22L636.39-22.22Q636.39-20.65 637.42-19.68 638.44-18.7 640.06-17.99 641.67-17.29 643.5-16.58 645.33-15.87 646.97-14.87 648.6-13.87 649.63-12.35 650.65-10.84 650.65-8.45L650.65-8.45Q650.65-5.91 649.04-3.88 647.43-1.86 644.55-0.71 641.67 0.44 637.81 0.44ZM682.29 0.44L682.29 0.44Q680.24 0.44 677.7-0.17 675.16-0.78 673.26-1.81L673.26-1.81 673.06-9.33 676.58-9.52 678.29-4.25Q679.17-3.71 680.46-3.34 681.76-2.98 682.93-2.98L682.93-2.98Q685.03-2.98 686.1-3.81 687.18-4.64 687.18-6.15L687.18-6.15Q687.18-7.76 686.15-8.76 685.13-9.77 683.54-10.45 681.95-11.13 680.15-11.79 678.34-12.45 676.75-13.45 675.16-14.45 674.14-16.04 673.11-17.63 673.11-20.17L673.11-20.17Q673.11-22.85 674.68-24.9 676.24-26.95 679.07-28.1 681.9-29.25 685.66-29.25L685.66-29.25Q686.74-29.25 688.08-29.05 689.42-28.86 690.69-28.56 691.96-28.27 692.89-27.83L692.89-27.83 693.52-20.36 690.11-20.17 688.49-25.2Q687.03-25.88 685.17-25.88L685.17-25.88Q683.42-25.88 682.15-24.95 680.88-24.02 680.88-22.22L680.88-22.22Q680.88-20.65 681.9-19.68 682.93-18.7 684.54-17.99 686.15-17.29 687.98-16.58 689.81-15.87 691.45-14.87 693.08-13.87 694.11-12.35 695.14-10.84 695.14-8.45L695.14-8.45Q695.14-5.91 693.52-3.88 691.91-1.86 689.03-0.71 686.15 0.44 682.29 0.44Z" opacity="1" transform="matrix(1,0,0,1,0,0)" fill="#ffffff" class="undefined-text-1" data-fill-palette-color="secondary" id="text-1"></path></svg></g></svg></g></svg></g></svg></g></svg></g></svg></g></svg></g><g mask="url(#a127bbfa-386b-4cc8-9f56-be113ed6a835)"><g transform="matrix(2.452, 0, 0, 2.452, 111.94, 1)"><svg version="1.1" xmlns="http://www.w3.org/2000/svg" xmlns:xlink="http://www.w3.org/1999/xlink" x="0" y="0" viewBox="0 0 70 100" enable-background="new 0 0 70 100" xml:space="preserve" height="100" width="70" class="icon-none" data-fill-palette-color="accent" id="none"><path d="M35 19L35 19H1.633l13.675 81h19.691H35h19.691l13.675-81H35zM13.455 65L8.56 36l52.88 0-4.896 29H13.455z" fill="#ffffff" data-fill-palette-color="accent"></path><path d="M68 9h-6l-2-9H35 10L8 9H2l-2 6h35 35L68 9zM34.857 11.475c-4.419 0-8-1.791-8-4s3.581-4 8-4c4.416 0 8 1.791 8 4S39.273 11.475 34.857 11.475z" fill="#ffffff" data-fill-palette-color="accent"></path></svg></g></g></svg></g><defs><mask id="a127bbfa-386b-4cc8-9f56-be113ed6a835"><rect width="640" height="400" fill="white"></rect><rect width="348.05760000000004" height="77.53739330930324" fill="black" x="145.97119999999998" y="161.23130334534838" id="transform-me" transform="matrix(1,0,0,1,-122.24000000000001,-76.4)"></rect></mask></defs></svg><rect width="395.52" height="247.2" fill="none" stroke="none" visibility="hidden"></rect></g></svg></g></svg>