<svg xmlns="http://www.w3.org/2000/svg" version="1.1" xmlns:xlink="http://www.w3.org/1999/xlink" xmlns:svgjs="http://svgjs.dev/svgjs" width="1000" height="1000" viewBox="0 0 1000 1000"><rect width="1000" height="1000" fill="#282634"></rect><g transform="matrix(0.7,0,0,0.7,149.57575757575756,282.1265587044535)"><svg viewBox="0 0 396 247" data-background-color="#282634" preserveAspectRatio="xMidYMid meet" height="623" width="1000" xmlns="http://www.w3.org/2000/svg" xmlns:xlink="http://www.w3.org/1999/xlink"><g id="tight-bounds" transform="matrix(1,0,0,1,0.2400000000000091,-0.09999999999999432)"><svg viewBox="0 0 395.52 247.2" height="247.2" width="395.52"><g><svg></svg></g><g><svg viewBox="0 0 395.52 247.2" height="247.2" width="395.52"><g transform="matrix(1,0,0,1,39.55199999999999,92.70014408790976)"><svg viewBox="0 0 316.416 61.79971182418048" height="61.79971182418048" width="316.416"><g><svg viewBox="0 0 316.416 61.79971182418048" height="61.79971182418048" width="316.416"><g><svg viewBox="0 0 316.416 61.79971182418048" height="61.79971182418048" width="316.416"><g><svg viewBox="0 0 316.416 61.79971182418048" height="61.79971182418048" width="316.416"><g><svg viewBox="0 0 316.416 61.79971182418048" height="61.79971182418048" width="316.416"><g><svg viewBox="0 0 316.416 33.33181154611811" height="33.33181154611811" width="316.416"><g transform="matrix(1,0,0,1,0,0)"><svg width="316.416" viewBox="1.9 -26.15 301.38 31.75" height="33.33181154611811" data-palette-color="#ff4057"><path d="M22.45-21.95L22.45-21.95Q20.7-22.25 19.07-22.25 17.45-22.25 15.15-21.7L15.15-21.7Q14.4-18.55 14.4-15.55L14.4-15.55Q14.4-7.8 21.3-3.65L21.3-3.65Q25.9-6.7 29.6-11.25L29.6-11.25Q29.75-9.25 29.85-5.15L29.85-5.15Q26.15-2.25 22.3-0.6 18.45 1.05 12.7 1.05L12.7 1.05 11.55 1.05Q7.05-0.9 4.48-4.7 1.9-8.5 1.9-12.7L1.9-12.7Q1.9-18.3 6.5-22.23 11.1-26.15 19.85-26.15L19.85-26.15Q24.75-26.15 30.1-24.9L30.1-24.9Q29.3-21.75 28.1-18.95L28.1-18.95Q24.95-18.65 21.6-18.65L21.6-18.65Q22.1-20.05 22.45-21.95ZM52.75-22L52.75-22Q50.75-22.3 48.47-22.3 46.2-22.3 44.05-22L44.05-22Q45.4-19.7 47.25-18.25 49.1-16.8 51.92-15.38 54.75-13.95 56.52-12.75 58.3-11.55 60.45-8.8 62.6-6.05 63.15-3.05L63.15-3.05Q60.75 0.05 56.8 2.43 52.85 4.8 48.7 5.6L48.7 5.6Q45.9 5.35 41.62 4.03 37.35 2.7 35.2 2.7 33.05 2.7 30.9 4.05L30.9 4.05Q31.8 1.5 33.85-2.35L33.85-2.35 34.25-2.35Q37.45-2.35 40.27-1.35 43.1-0.35 45.42 0.65 47.75 1.65 49.17 1.65 50.6 1.65 51.25 1.45L51.25 1.45Q51.25-1.85 49.2-4L49.2-4Q48.1-5.15 47.32-5.78 46.55-6.4 44.95-7.5L44.95-7.5 44.1-8.1Q40.7-10.45 38.5-12.88 36.3-15.3 35.3-18.85L35.3-18.85Q36.9-22.4 38.45-25L38.45-25Q43.2-26.15 48.3-26.15L48.3-26.15 50.5-26.15Q54.8-26.15 60.35-24.95L60.35-24.95Q59.55-21.65 58.4-19L58.4-19Q54.2-18.7 51.9-18.7L51.9-18.7Q52.35-19.85 52.75-22ZM84.5-22L84.5-22Q82.5-22.3 80.22-22.3 77.94-22.3 75.8-22L75.8-22Q77.14-19.7 79-18.25 80.84-16.8 83.67-15.38 86.5-13.95 88.27-12.75 90.05-11.55 92.19-8.8 94.34-6.05 94.89-3.05L94.89-3.05Q92.5 0.05 88.55 2.43 84.59 4.8 80.44 5.6L80.44 5.6Q77.64 5.35 73.37 4.03 69.09 2.7 66.94 2.7 64.8 2.7 62.64 4.05L62.64 4.05Q63.55 1.5 65.59-2.35L65.59-2.35 66-2.35Q69.19-2.35 72.02-1.35 74.84-0.35 77.17 0.65 79.5 1.65 80.92 1.65 82.34 1.65 83 1.45L83 1.45Q83-1.85 80.94-4L80.94-4Q79.84-5.15 79.07-5.78 78.3-6.4 76.69-7.5L76.69-7.5 75.84-8.1Q72.44-10.45 70.25-12.88 68.05-15.3 67.05-18.85L67.05-18.85Q68.64-22.4 70.19-25L70.19-25Q74.94-26.15 80.05-26.15L80.05-26.15 82.25-26.15Q86.55-26.15 92.09-24.95L92.09-24.95Q91.3-21.65 90.14-19L90.14-19Q85.94-18.7 83.64-18.7L83.64-18.7Q84.09-19.85 84.5-22ZM135.04-21.95L135.04-21.95Q133.29-22.25 131.66-22.25 130.04-22.25 127.74-21.7L127.74-21.7Q126.99-18.55 126.99-15.55L126.99-15.55Q126.99-7.8 133.89-3.65L133.89-3.65Q138.49-6.7 142.19-11.25L142.19-11.25Q142.34-9.25 142.44-5.15L142.44-5.15Q138.74-2.25 134.89-0.6 131.04 1.05 125.29 1.05L125.29 1.05 124.14 1.05Q119.64-0.9 117.06-4.7 114.49-8.5 114.49-12.7L114.49-12.7Q114.49-18.3 119.09-22.23 123.69-26.15 132.44-26.15L132.44-26.15Q137.34-26.15 142.69-24.9L142.69-24.9Q141.89-21.75 140.69-18.95L140.69-18.95Q137.54-18.65 134.19-18.65L134.19-18.65Q134.69-20.05 135.04-21.95ZM150.34-0.15L150.34-0.15Q145.89-5.85 145.89-11.85 145.89-17.85 150.89-22 155.89-26.15 163.69-26.15L163.69-26.15Q167.84-26.15 171.94-24.9L171.94-24.9Q175.54-20.35 175.54-15.15L175.54-15.15Q175.54-8.6 170.19-3.75 164.84 1.1 157.24 1.1L157.24 1.1Q153.99 1.1 150.34-0.15ZM157.94-21.8L157.94-21.8Q156.19-18.8 156.19-14.75 156.19-10.7 157.96-7.28 159.74-3.85 162.84-2.35L162.84-2.35Q165.19-5.35 165.19-9.3 165.19-13.25 163.26-16.65 161.34-20.05 157.94-21.8ZM197.74-14.2L197.74-14.2 202.49-13.9Q203.14-13.9 203.49-13.95L203.49-13.95 201.14-9.55 200.69-9.55Q199.74-9.55 197.99-10.08 196.24-10.6 195.49-10.6L195.49-10.6Q193.53-10.6 192.34-8.05L192.34-8.05Q192.09-5.2 192.09-3.55 192.09-1.9 192.19 0L192.19 0 181.34 0Q180.39-6.4 180.39-13.23 180.39-20.05 181.09-24.95L181.09-24.95 207.79-24.95Q206.89-19.55 206.19-17.4L206.19-17.4 200.79-17.15Q201.24-18.4 201.24-19.3L201.24-19.3Q201.24-21.7 197.59-21.7L197.59-21.7Q195.99-21.7 194.64-21.45L194.64-21.45Q193.53-17 192.84-12.35L192.84-12.35Q194.84-14.2 197.74-14.2ZM228.68-14.2L228.68-14.2 233.43-13.9Q234.08-13.9 234.43-13.95L234.43-13.95 232.08-9.55 231.63-9.55Q230.68-9.55 228.93-10.08 227.18-10.6 226.43-10.6L226.43-10.6Q224.48-10.6 223.28-8.05L223.28-8.05Q223.03-5.2 223.03-3.55 223.03-1.9 223.13 0L223.13 0 212.28 0Q211.33-6.4 211.33-13.23 211.33-20.05 212.03-24.95L212.03-24.95 238.73-24.95Q237.83-19.55 237.13-17.4L237.13-17.4 231.73-17.15Q232.18-18.4 232.18-19.3L232.18-19.3Q232.18-21.7 228.53-21.7L228.53-21.7Q226.93-21.7 225.58-21.45L225.58-21.45Q224.48-17 223.78-12.35L223.78-12.35Q225.78-14.2 228.68-14.2ZM259.73-14.95L259.73-14.95 264.43-14.65Q265.13-14.65 265.48-14.7L265.48-14.7 263.13-10.3 262.68-10.3Q261.73-10.3 259.98-10.83 258.23-11.35 257.48-11.35L257.48-11.35Q255.43-11.35 254.23-8.7L254.23-8.7Q254.03-6.25 253.93-3.8L253.93-3.8Q256.53-3.3 258.03-3.3L258.03-3.3 258.48-3.3Q260.63-3.3 261.91-4.25 263.18-5.2 263.73-7.65L263.73-7.65 269.73-7.4Q268.98-3.1 267.73 0L267.73 0 243.18 0Q242.18-6.75 242.18-13.4 242.18-20.05 242.88-25L242.88-25 269.68-25Q268.78-19.6 268.08-17.4L268.08-17.4Q265.13-17.25 262.68-17.2L262.68-17.2Q263.08-18.35 263.08-19.35L263.08-19.35Q263.08-21.75 259.48-21.75L259.48-21.75Q258.13-21.75 256.48-21.45L256.48-21.45Q255.38-16.7 254.78-13.1L254.78-13.1Q256.78-14.95 259.73-14.95ZM293.28-14.95L293.28-14.95 297.98-14.65Q298.68-14.65 299.03-14.7L299.03-14.7 296.68-10.3 296.23-10.3Q295.28-10.3 293.53-10.83 291.78-11.35 291.03-11.35L291.03-11.35Q288.98-11.35 287.78-8.7L287.78-8.7Q287.58-6.25 287.48-3.8L287.48-3.8Q290.08-3.3 291.58-3.3L291.58-3.3 292.03-3.3Q294.18-3.3 295.45-4.25 296.73-5.2 297.28-7.65L297.28-7.65 303.28-7.4Q302.53-3.1 301.28 0L301.28 0 276.73 0Q275.73-6.75 275.73-13.4 275.73-20.05 276.43-25L276.43-25 303.23-25Q302.33-19.6 301.63-17.4L301.63-17.4Q298.68-17.25 296.23-17.2L296.23-17.2Q296.63-18.35 296.63-19.35L296.63-19.35Q296.63-21.75 293.03-21.75L293.03-21.75Q291.68-21.75 290.03-21.45L290.03-21.45Q288.93-16.7 288.33-13.1L288.33-13.1Q290.33-14.95 293.28-14.95Z" opacity="1" transform="matrix(1,0,0,1,0,0)" fill="#ff4057" class="undefined-text-0" data-fill-palette-color="primary" id="text-0"></path></svg></g></svg></g><g transform="matrix(1,0,0,1,0,41.20065228867949)"><svg viewBox="0 0 316.416 20.59905953550099" height="20.59905953550099" width="316.416"><g transform="matrix(1,0,0,1,0,0)"><svg width="316.416" viewBox="0.83 -34.13 695.28 45.260000000000005" height="20.59905953550099" data-palette-color="#dcdcdc"><path d="M28.91-28.96L28.91-28.96 30.08-20.02 26.76-19.78 24.85-25.44Q24.37-25.54 23.78-25.56 23.19-25.59 22.46-25.59L22.46-25.59 20.9-25.59Q20.46-25.59 20-25.59 19.53-25.59 19.34-25.49L19.34-25.49Q19.34-25.2 19.31-23.66 19.29-22.12 19.26-19.97 19.24-17.82 19.24-15.53L19.24-15.53 19.24-11.67Q19.24-9.08 19.29-6.88 19.34-4.69 19.38-3.47L19.38-3.47 23.68-2.73 23.54 0 7.37 0 7.23-2.73 11.52-3.47Q11.62-4.69 11.67-6.88 11.72-9.08 11.72-11.67L11.72-11.67 11.72-15.53Q11.72-17.82 11.69-19.97 11.67-22.12 11.65-23.66 11.62-25.2 11.57-25.49L11.57-25.49Q11.43-25.59 10.96-25.59 10.5-25.59 10.06-25.59L10.06-25.59 8.45-25.59Q7.71-25.59 7.06-25.56 6.4-25.54 5.91-25.44L5.91-25.44 4.15-19.68 0.83-19.97 1.81-28.96Q2.34-28.91 3.32-28.88 4.3-28.86 5.44-28.81 6.59-28.76 7.67-28.71 8.74-28.66 9.42-28.66L9.42-28.66 21.34-28.66Q22.02-28.66 23.1-28.71 24.17-28.76 25.32-28.81 26.46-28.86 27.44-28.88 28.42-28.91 28.91-28.96ZM58.92 0L45.64 0 45.5-2.39 48.52-3.27Q48.57-3.91 48.65-5.35 48.72-6.79 48.77-8.47 48.82-10.16 48.82-11.38L48.82-11.38 48.82-17.58Q48.82-19.29 48.79-20.87 48.77-22.46 48.74-23.9 48.72-25.34 48.67-26.59 48.62-27.83 48.52-28.76L48.52-28.76 44.91-29.25 44.81-31.59 54.82-34.13 56.34-33.2Q56.24-31.74 56.16-30.35 56.09-28.96 56.02-27.29 55.95-25.63 55.9-23.41 55.85-21.19 55.8-18.07L55.8-18.07 55.95-18.02Q57.41-20.02 59.27-21.02 61.12-22.02 63.22-22.02L63.22-22.02Q65.37-22.02 67.03-20.95 68.69-19.87 69.67-17.87 70.64-15.87 70.64-13.09L70.64-13.09 70.64-8.15Q70.64-6.54 70.69-5.08 70.74-3.61 70.84-3.27L70.84-3.27 73.87-2.39 73.72 0 60.73 0 60.58-2.39 63.27-3.27Q63.37-3.81 63.42-4.69 63.46-5.57 63.49-6.54 63.51-7.52 63.51-8.2L63.51-8.2 63.51-11.91Q63.51-13.72 63-14.82 62.49-15.92 61.66-16.43 60.83-16.94 59.7-16.94L59.7-16.94Q58.68-16.94 57.7-16.48 56.73-16.02 55.99-15.09L55.99-15.09 55.99-7.96Q55.99-6.35 56.07-5 56.14-3.66 56.19-3.27L56.19-3.27 59.07-2.39 58.92 0ZM101.05 0.39L101.05 0.39Q97.78 0.39 95.26-1.07 92.75-2.54 91.33-5.03 89.92-7.52 89.92-10.5L89.92-10.5Q89.92-13.87 91.53-16.46 93.14-19.04 95.73-20.53 98.32-22.02 101.25-22.02L101.25-22.02Q105.64-22.02 108.11-19.36 110.57-16.7 110.57-12.4L110.57-12.4 110.57-11.13 96.31-11.13 96.31-13.82 105.25-13.82 104.37-12.45 104.37-14.36Q104.37-16.5 103.47-17.77 102.56-19.04 100.86-19.04L100.86-19.04Q99.73-19.04 98.85-18.41 97.97-17.77 97.46-16.48 96.95-15.19 96.95-13.23L96.95-13.23 96.95-12.06Q96.95-8.84 98.76-6.79 100.56-4.74 103.64-4.74L103.64-4.74Q105.3-4.74 106.67-5.35 108.03-5.96 109.3-7.37L109.3-7.37 110.86-5.91Q109.5-2.83 106.89-1.22 104.27 0.39 101.05 0.39ZM151.32-26.03L151.47-28.66 165.48-28.66Q173.44-28.66 177.88-24.98 182.33-21.29 182.33-14.75L182.33-14.75Q182.33-10.45 180.23-7.13 178.13-3.81 174.42-1.9 170.7 0 165.92 0L165.92 0 151.47 0 151.32-2.64 154.44-3.47Q154.59-3.76 154.69-5.91 154.79-8.06 154.79-11.13L154.79-11.13 154.79-17.58Q154.79-20.61 154.69-22.8 154.59-25 154.44-25.24L154.44-25.24 151.32-26.03ZM162.31-25.2L162.31-25.2Q162.31-24.9 162.28-23.88 162.26-22.85 162.23-21.26 162.21-19.68 162.21-17.58L162.21-17.58 162.21-11.13Q162.21-9.91 162.23-8.5 162.26-7.08 162.33-5.83 162.4-4.59 162.45-3.91L162.45-3.91Q163.38-3.71 164.45-3.59 165.53-3.47 166.46-3.47L166.46-3.47Q170.26-3.47 172.19-5.76 174.12-8.06 174.12-13.13L174.12-13.13Q174.12-16.7 173.34-19.04 172.56-21.39 171.24-22.78 169.92-24.17 168.34-24.8 166.75-25.44 165.09-25.44L165.09-25.44Q164.45-25.44 163.72-25.37 162.99-25.29 162.31-25.2ZM207.85 0.39L207.85 0.39Q205.51 0.39 203.85-0.61 202.19-1.61 201.31-3.05 200.43-4.49 200.43-5.71L200.43-5.71Q200.43-7.57 201.53-8.79 202.63-10.01 204.92-10.64L204.92-10.64 212.64-12.79 212.64-14.26Q212.64-15.28 212.03-16.16 211.42-17.04 210.39-17.63 209.36-18.21 208.24-18.21L208.24-18.21Q207.56-18.21 207.29-17.87 207.02-17.53 206.92-16.65L206.92-16.65 206.63-13.33Q203.99-12.84 202.33-13.53 200.67-14.21 200.67-15.82L200.67-15.82Q200.67-16.85 201.72-17.9 202.77-18.95 204.34-19.82 205.9-20.7 207.48-21.31 209.07-21.92 210.1-22.02L210.1-22.02Q214.69-22.02 217.35-20.02 220.01-18.02 220.01-14.55L220.01-14.55 219.86-8.25Q219.86-6.74 219.96-6.01 220.06-5.27 220.25-4.79L220.25-4.79 223.52-4.2 223.52-1.95 220.06-0.44Q219.13 0 218.32 0.2 217.52 0.39 216.74 0.39L216.74 0.39Q214.69 0.39 213.86-1.66L213.86-1.66 212.88-4 214-3.76Q212.54-1.86 210.93-0.73 209.32 0.39 207.85 0.39ZM210.73-4.49L210.73-4.49Q211.27-4.49 211.78-4.69 212.29-4.88 212.73-5.27L212.73-5.27 212.73-9.91 210.15-9.57Q208.92-9.47 208.39-8.89 207.85-8.3 207.85-7.37L207.85-7.37Q207.85-6.3 208.73-5.4 209.61-4.49 210.73-4.49ZM252.08 0L238.21 0 238.06-2.49 241.29-3.27Q241.33-3.47 241.38-4.25 241.43-5.03 241.48-6.05 241.53-7.08 241.53-8.06L241.53-8.06 241.58-11.72Q241.58-13.13 241.51-14.14 241.43-15.14 241.19-16.5L241.19-16.5 237.92-17.19 237.92-19.53 247.54-21.92 249.1-21.04Q248.95-19.43 248.88-17.82 248.81-16.21 248.81-14.21L248.81-14.21 248.81-7.96Q248.81-6.59 248.88-5.13 248.95-3.66 249-3.27L249-3.27 252.22-2.49 252.08 0ZM245.24-25.34L245.24-25.34Q243-25.34 241.77-26.66 240.55-27.98 240.55-29.69L240.55-29.69Q240.55-31.4 241.77-32.71 243-34.03 245.24-34.03L245.24-34.03Q247.49-34.03 248.66-32.71 249.83-31.4 249.83-29.69L249.83-29.69Q249.83-27.98 248.66-26.66 247.49-25.34 245.24-25.34ZM281.12 0L267.25 0 267.1-2.49 270.28-3.27Q270.33-3.91 270.4-5.35 270.47-6.79 270.52-8.47 270.57-10.16 270.57-11.38L270.57-11.38 270.57-17.63Q270.57-19.24 270.55-20.83 270.52-22.41 270.5-23.88 270.47-25.34 270.42-26.59 270.38-27.83 270.28-28.76L270.28-28.76 266.66-29.25 266.57-31.59 276.67-34.13 278.19-33.2Q278.09-31.2 278.02-29.27 277.94-27.34 277.94-24.95 277.94-22.56 277.9-18.99L277.9-18.99 277.85-12.11Q277.85-8.5 277.92-6.15 277.99-3.81 278.09-3.27L278.09-3.27 281.26-2.49 281.12 0ZM311.23-7.42L306.79 0.2 297.71-18.36 295.41-19.24 295.56-21.63 309.04-21.63 309.18-19.24 306.15-18.36 311.23-7.42ZM311.72-21.63L320.85-21.63 321-19.24 318.7-18.36 310.11-1.71 306.25 6.35Q304.89 9.18 303.44 10.16 302 11.13 300.44 11.13L300.44 11.13Q298.64 11.13 297.61 10.25 296.58 9.38 296.58 8.15L296.58 8.15Q296.58 6.88 297.56 5.91 298.54 4.93 300.44 4.44L300.44 4.44 306.59 2.78 302.98 4.93 309.08-6.2 309.77-7.47 314.6-18.36 311.57-19.24 311.72-21.63ZM369.85 0.44L369.85 0.44Q367.8 0.44 365.26-0.17 362.72-0.78 360.82-1.81L360.82-1.81 360.62-9.33 364.14-9.52 365.85-4.25Q366.73-3.71 368.02-3.34 369.31-2.98 370.49-2.98L370.49-2.98Q372.59-2.98 373.66-3.81 374.73-4.64 374.73-6.15L374.73-6.15Q374.73-7.76 373.71-8.76 372.68-9.77 371.1-10.45 369.51-11.13 367.7-11.79 365.9-12.45 364.31-13.45 362.72-14.45 361.7-16.04 360.67-17.63 360.67-20.17L360.67-20.17Q360.67-22.85 362.23-24.9 363.8-26.95 366.63-28.1 369.46-29.25 373.22-29.25L373.22-29.25Q374.3-29.25 375.64-29.05 376.98-28.86 378.25-28.56 379.52-28.27 380.45-27.83L380.45-27.83 381.08-20.36 377.66-20.17 376.05-25.2Q374.59-25.88 372.73-25.88L372.73-25.88Q370.97-25.88 369.71-24.95 368.44-24.02 368.44-22.22L368.44-22.22Q368.44-20.65 369.46-19.68 370.49-18.7 372.1-17.99 373.71-17.29 375.54-16.58 377.37-15.87 379.01-14.87 380.64-13.87 381.67-12.35 382.69-10.84 382.69-8.45L382.69-8.45Q382.69-5.91 381.08-3.88 379.47-1.86 376.59-0.71 373.71 0.44 369.85 0.44ZM412.32 0L398.45 0 398.31-2.49 401.53-3.27Q401.58-3.47 401.63-4.25 401.68-5.03 401.72-6.05 401.77-7.08 401.77-8.06L401.77-8.06 401.82-11.72Q401.82-13.13 401.75-14.14 401.68-15.14 401.43-16.5L401.43-16.5 398.16-17.19 398.16-19.53 407.78-21.92 409.34-21.04Q409.2-19.43 409.12-17.82 409.05-16.21 409.05-14.21L409.05-14.21 409.05-7.96Q409.05-6.59 409.12-5.13 409.2-3.66 409.24-3.27L409.24-3.27 412.47-2.49 412.32 0ZM405.48-25.34L405.48-25.34Q403.24-25.34 402.02-26.66 400.8-27.98 400.8-29.69L400.8-29.69Q400.8-31.4 402.02-32.71 403.24-34.03 405.48-34.03L405.48-34.03Q407.73-34.03 408.9-32.71 410.07-31.4 410.07-29.69L410.07-29.69Q410.07-27.98 408.9-26.66 407.73-25.34 405.48-25.34ZM441.95 10.74L427.49 10.74 427.35 8.35 430.37 7.47Q430.37 7.13 430.42 6.03 430.47 4.93 430.52 3.44 430.57 1.95 430.62 0.32 430.67-1.32 430.67-2.73L430.67-2.73 430.77-11.62Q430.77-13.09 430.69-14.11 430.62-15.14 430.37-16.5L430.37-16.5 427.25-17.19 427.25-19.53 436.48-21.92 437.99-21.04 437.6-17.92 437.75-17.82Q438.87-19.73 440.65-20.87 442.44-22.02 444.39-22.02L444.39-22.02Q446.63-22.02 448.66-20.85 450.69-19.68 451.98-17.41 453.28-15.14 453.28-11.82L453.28-11.82Q453.28-8.64 451.81-5.88 450.35-3.13 447.56-1.39 444.78 0.34 440.92 0.34L440.92 0.34Q440.24 0.34 439.46 0.22 438.68 0.1 437.85-0.15L437.85-0.15 437.85 2.73Q437.85 4.25 437.92 5.66 437.99 7.08 438.09 7.47L438.09 7.47 442.09 8.3 441.95 10.74ZM440.97-3.52L440.97-3.52Q442.29-3.52 443.34-4.13 444.39-4.74 445.02-6.2 445.66-7.67 445.61-10.11L445.61-10.11Q445.61-12.7 444.93-14.18 444.24-15.67 443.22-16.26 442.19-16.85 441.07-16.85L441.07-16.85Q440.19-16.85 439.33-16.41 438.48-15.97 437.85-15.23L437.85-15.23 437.85-4.35Q438.53-3.96 439.33-3.74 440.14-3.52 440.97-3.52ZM505.94 0.39L505.94 0.39Q502.47 0.39 499.81-1 497.15-2.39 495.63-4.88 494.12-7.37 494.12-10.55L494.12-10.55Q494.12-14.26 495.83-16.82 497.54-19.38 500.3-20.7 503.06-22.02 506.13-22.02L506.13-22.02Q509.45-22.02 511.99-20.63 514.53-19.24 515.97-16.77 517.41-14.31 517.41-11.08L517.41-11.08Q517.41-7.86 515.87-5.25 514.34-2.64 511.72-1.12 509.11 0.39 505.94 0.39ZM506.43-3.03L506.43-3.03Q507.55-3.03 508.26-3.74 508.96-4.44 509.33-5.88 509.7-7.32 509.7-9.33L509.7-9.33Q509.7-13.57 508.5-16.21 507.3-18.85 505.3-18.85L505.3-18.85Q503.69-18.85 502.79-17.07 501.88-15.28 501.88-12.16L501.88-12.16Q501.88-9.62 502.47-7.54 503.06-5.47 504.11-4.25 505.16-3.03 506.43-3.03ZM548.41-2.39L548.26 0 533.9 0 533.76-2.39 536.78-3.27Q536.83-4.35 536.86-5.18 536.88-6.01 536.88-6.96 536.88-7.91 536.88-9.35 536.88-10.79 536.88-13.13L536.88-13.13 536.83-18.21 536.83-22.61Q536.83-25.88 538.13-28.49 539.42-31.1 541.67-32.59 543.91-34.08 546.7-34.08L546.7-34.08Q549.33-34.08 550.99-33.03 552.65-31.98 552.65-30.27L552.65-30.27Q552.65-29.1 551.99-28.52 551.34-27.93 550.16-27.93L550.16-27.93Q548.7-27.93 547.14-29.2L547.14-29.2 544.16-31.98 546.6-31.64Q545.33-31.64 544.65-29.98 543.96-28.32 543.96-25.05L543.96-25.05 543.96-21.53 544.06-18.21 544.11-13.13Q544.11-10.6 544.18-7.91 544.26-5.22 544.4-3.27L544.4-3.27 548.41-2.39ZM549.09-18.21L533.32-18.21 533.32-20.7 536.83-21.73 539.47-21.53 549.09-21.53 549.09-18.21ZM605.46 0.44L605.46 0.44Q600.53 0.44 596.87-1.25 593.21-2.93 591.2-6.13 589.2-9.33 589.2-13.77L589.2-13.77Q589.2-17.48 590.54-20.34 591.89-23.19 594.28-25.15 596.67-27.1 599.82-28.1 602.97-29.1 606.68-29.1L606.68-29.1Q608.98-29.1 611.25-28.61 613.52-28.13 614.98-27.39L614.98-27.39 615.33-19.63 612.05-19.43 610.2-24.76Q609.27-25.2 608.29-25.42 607.32-25.63 606.24-25.63L606.24-25.63Q603.7-25.63 601.87-24.39 600.04-23.14 599.04-20.8 598.04-18.46 598.04-15.09L598.04-15.09Q598.04-11.43 599.24-8.76 600.43-6.1 602.41-4.66 604.39-3.22 606.83-3.22L606.83-3.22Q608.15-3.22 609.37-3.56 610.59-3.91 611.47-4.64L611.47-4.64 613.13-9.18 616.74-8.79 615.33-2.15Q613.81-1.07 611.1-0.32 608.39 0.44 605.46 0.44ZM643.54 0.44L643.54 0.44Q641.49 0.44 638.95-0.17 636.41-0.78 634.5-1.81L634.5-1.81 634.31-9.33 637.82-9.52 639.53-4.25Q640.41-3.71 641.7-3.34 643-2.98 644.17-2.98L644.17-2.98Q646.27-2.98 647.34-3.81 648.42-4.64 648.42-6.15L648.42-6.15Q648.42-7.76 647.39-8.76 646.37-9.77 644.78-10.45 643.19-11.13 641.39-11.79 639.58-12.45 637.99-13.45 636.41-14.45 635.38-16.04 634.36-17.63 634.36-20.17L634.36-20.17Q634.36-22.85 635.92-24.9 637.48-26.95 640.31-28.1 643.15-29.25 646.9-29.25L646.9-29.25Q647.98-29.25 649.32-29.05 650.66-28.86 651.93-28.56 653.2-28.27 654.13-27.83L654.13-27.83 654.77-20.36 651.35-20.17 649.74-25.2Q648.27-25.88 646.42-25.88L646.42-25.88Q644.66-25.88 643.39-24.95 642.12-24.02 642.12-22.22L642.12-22.22Q642.12-20.65 643.15-19.68 644.17-18.7 645.78-17.99 647.39-17.29 649.22-16.58 651.06-15.87 652.69-14.87 654.33-13.87 655.35-12.35 656.38-10.84 656.38-8.45L656.38-8.45Q656.38-5.91 654.77-3.88 653.15-1.86 650.27-0.71 647.39 0.44 643.54 0.44ZM683.27 0.44L683.27 0.44Q681.22 0.44 678.68-0.17 676.14-0.78 674.24-1.81L674.24-1.81 674.04-9.33 677.56-9.52 679.27-4.25Q680.15-3.71 681.44-3.34 682.73-2.98 683.9-2.98L683.9-2.98Q686-2.98 687.08-3.81 688.15-4.64 688.15-6.15L688.15-6.15Q688.15-7.76 687.13-8.76 686.1-9.77 684.52-10.45 682.93-11.13 681.12-11.79 679.31-12.45 677.73-13.45 676.14-14.45 675.12-16.04 674.09-17.63 674.09-20.17L674.09-20.17Q674.09-22.85 675.65-24.9 677.22-26.95 680.05-28.1 682.88-29.25 686.64-29.25L686.64-29.25Q687.71-29.25 689.06-29.05 690.4-28.86 691.67-28.56 692.94-28.27 693.87-27.83L693.87-27.83 694.5-20.36 691.08-20.17 689.47-25.2Q688.01-25.88 686.15-25.88L686.15-25.88Q684.39-25.88 683.12-24.95 681.85-24.02 681.85-22.22L681.85-22.22Q681.85-20.65 682.88-19.68 683.9-18.7 685.52-17.99 687.13-17.29 688.96-16.58 690.79-15.87 692.43-14.87 694.06-13.87 695.09-12.35 696.11-10.84 696.11-8.45L696.11-8.45Q696.11-5.91 694.5-3.88 692.89-1.86 690.01-0.71 687.13 0.44 683.27 0.44Z" opacity="1" transform="matrix(1,0,0,1,0,0)" fill="#dcdcdc" class="undefined-text-1" data-fill-palette-color="secondary" id="text-1"></path></svg></g></svg></g></svg></g></svg></g></svg></g></svg></g></svg></g><g mask="url(#e89926bb-7afd-4ca3-8d79-fa86a0754890)"><g transform="matrix(2.452, 0, 0, 2.452, 111.94, 1)"><svg version="1.1" xmlns="http://www.w3.org/2000/svg" xmlns:xlink="http://www.w3.org/1999/xlink" x="0" y="0" viewBox="0 0 70 100" enable-background="new 0 0 70 100" xml:space="preserve" height="100" width="70" class="icon-none" data-fill-palette-color="accent" id="none"><path d="M35 19L35 19H1.633l13.675 81h19.691H35h19.691l13.675-81H35zM13.455 65L8.56 36l52.88 0-4.896 29H13.455z" fill="#dcdcdc" data-fill-palette-color="accent"></path><path d="M68 9h-6l-2-9H35 10L8 9H2l-2 6h35 35L68 9zM34.857 11.475c-4.419 0-8-1.791-8-4s3.581-4 8-4c4.416 0 8 1.791 8 4S39.273 11.475 34.857 11.475z" fill="#dcdcdc" data-fill-palette-color="accent"></path></svg></g></g></svg></g><defs><mask id="e89926bb-7afd-4ca3-8d79-fa86a0754890"><rect width="640" height="400" fill="white"></rect><rect width="348.05760000000004" height="77.53739330930324" fill="black" x="145.97119999999998" y="161.23130334534838" id="transform-me" transform="matrix(1,0,0,1,-122.24000000000001,-76.4)"></rect></mask></defs></svg><rect width="395.52" height="247.2" fill="none" stroke="none" visibility="hidden"></rect></g></svg></g></svg>